<svg width="101" height="101" viewBox="0 0 101 101" fill="none" xmlns="http://www.w3.org/2000/svg">
<circle cx="50.5" cy="50.5" r="50.5" fill="#313EF7" fill-opacity="0.05"/>
<g filter="url(#filter0_d_120_137)">
<path d="M41.7709 24.5283C31.4922 24.5283 23.0859 32.9374 23.0859 43.2133C23.0859 53.4891 31.4922 61.8982 41.7709 61.8982C52.0496 61.8982 60.4559 53.4891 60.4559 43.2133C60.4559 32.9374 52.0496 24.5283 41.7709 24.5283ZM41.7709 31.6442C48.1987 31.6442 53.3355 36.7803 53.3355 43.2133C53.3355 49.6462 48.1987 54.7823 41.7709 54.7823C35.3432 54.7823 30.2061 49.6462 30.2061 43.2133C30.2061 36.7803 35.3432 31.6442 41.7709 31.6442Z" fill="#327BD2"/>
<path d="M52.4504 50.3354C51.9829 50.3353 51.5199 50.4272 51.0879 50.6059C50.6559 50.7845 50.2633 51.0465 49.9326 51.3768C49.2648 52.0438 48.8894 52.9487 48.8892 53.8923C48.8889 54.836 49.2637 55.7411 49.9311 56.4085L70.3934 76.871C71.0609 77.5384 71.9663 77.9136 72.9105 77.9138C73.8547 77.9141 74.7603 77.5395 75.4282 76.8725C76.096 76.2055 76.4714 75.3006 76.4717 74.357C76.472 73.4134 76.0972 72.5083 75.4298 71.8408L54.9674 51.3785C54.3 50.711 53.3946 50.3358 52.4504 50.3354Z" fill="#327BD2"/>
<path d="M49.7684 44.5469C49.6515 44.5469 49.5358 44.5239 49.4278 44.4792C49.3198 44.4345 49.2217 44.369 49.139 44.2864C49.0564 44.2038 48.9908 44.1058 48.946 43.9978C48.9013 43.8899 48.8783 43.7742 48.8783 43.6574C48.8783 41.3029 47.7831 39.0845 45.9141 37.653C44.0451 36.2214 41.6185 35.742 39.3457 36.3553C39.1178 36.4168 38.8748 36.3853 38.6701 36.2677C38.4655 36.1502 38.3159 35.9562 38.2544 35.7285C38.2239 35.6157 38.216 35.498 38.231 35.3822C38.2461 35.2663 38.2838 35.1546 38.342 35.0533C38.4003 34.952 38.4779 34.8632 38.5705 34.7919C38.6631 34.7207 38.7689 34.6683 38.8817 34.6379C41.6882 33.8806 44.6894 34.4736 46.9969 36.241C49.3045 38.0085 50.6584 40.7511 50.6584 43.6574C50.6584 43.8933 50.5646 44.1195 50.3977 44.2863C50.2308 44.4531 50.0044 44.5469 49.7684 44.5469Z" fill="#327BD2"/>
</g>
<defs>
<filter id="filter0_d_120_137" x="6.08594" y="8.52832" width="87.3857" height="87.3857" filterUnits="userSpaceOnUse" color-interpolation-filters="sRGB">
<feFlood flood-opacity="0" result="BackgroundImageFix"/>
<feColorMatrix in="SourceAlpha" type="matrix" values="0 0 0 0 0 0 0 0 0 0 0 0 0 0 0 0 0 0 127 0" result="hardAlpha"/>
<feOffset dy="1"/>
<feGaussianBlur stdDeviation="8.5"/>
<feComposite in2="hardAlpha" operator="out"/>
<feColorMatrix type="matrix" values="0 0 0 0 0.196078 0 0 0 0 0.482353 0 0 0 0 0.823529 0 0 0 0.25 0"/>
<feBlend mode="normal" in2="BackgroundImageFix" result="effect1_dropShadow_120_137"/>
<feBlend mode="normal" in="SourceGraphic" in2="effect1_dropShadow_120_137" result="shape"/>
</filter>
</defs>
</svg>
