<svg width="101" height="100" viewBox="0 0 101 100" fill="none" xmlns="http://www.w3.org/2000/svg">
<g filter="url(#filter0_d_120_599)">
<ellipse cx="50.0962" cy="43.9229" rx="23.0074" ry="22.9229" fill="#327BD2"/>
</g>
<path d="M61.6001 37.1929C60.7446 37.547 59.8329 37.7816 58.8824 37.8955C59.8602 37.3449 60.6065 36.4795 60.9574 35.4364C60.0457 35.9491 59.0391 36.3113 57.9664 36.5134C57.1008 35.644 55.867 35.1055 54.5211 35.1055C51.9097 35.1055 49.8074 37.1048 49.8074 39.5558C49.8074 39.9084 49.8391 40.2475 49.9167 40.5703C45.9954 40.3899 42.5256 38.6171 40.1947 35.9166C39.7877 36.5826 39.549 37.3449 39.549 38.1655C39.549 39.7063 40.3902 41.0722 41.6441 41.863C40.8863 41.8494 40.1429 41.6419 39.5131 41.315C39.5131 41.3285 39.5131 41.3462 39.5131 41.3638C39.5131 43.5259 41.148 45.3217 43.292 45.7354C42.9081 45.8344 42.4896 45.8819 42.0554 45.8819C41.7534 45.8819 41.4486 45.8656 41.1624 45.806C41.7735 47.5679 43.5077 48.8632 45.5698 48.9053C43.965 50.0894 41.9274 50.8029 39.7216 50.8029C39.3348 50.8029 38.9638 50.7866 38.5928 50.7418C40.6821 52.0128 43.1583 52.7384 45.8286 52.7384C54.5081 52.7384 59.2534 45.9565 59.2534 40.078C59.2534 39.8813 59.2462 39.6914 59.2361 39.5029C60.1723 38.8762 60.9588 38.0936 61.6001 37.1929Z" fill="white"/>
<defs>
<filter id="filter0_d_120_599" x="0.0888672" y="0" width="100.015" height="99.8457" filterUnits="userSpaceOnUse" color-interpolation-filters="sRGB">
<feFlood flood-opacity="0" result="BackgroundImageFix"/>
<feColorMatrix in="SourceAlpha" type="matrix" values="0 0 0 0 0 0 0 0 0 0 0 0 0 0 0 0 0 0 127 0" result="hardAlpha"/>
<feOffset dy="6"/>
<feGaussianBlur stdDeviation="13.5"/>
<feComposite in2="hardAlpha" operator="out"/>
<feColorMatrix type="matrix" values="0 0 0 0 0.192031 0 0 0 0 0.192031 0 0 0 0 0.192031 0 0 0 0.17 0"/>
<feBlend mode="normal" in2="BackgroundImageFix" result="effect1_dropShadow_120_599"/>
<feBlend mode="normal" in="SourceGraphic" in2="effect1_dropShadow_120_599" result="shape"/>
</filter>
</defs>
</svg>
