<svg width="24" height="18" viewBox="0 0 24 18" fill="none" xmlns="http://www.w3.org/2000/svg">
<path d="M23.6001 2.19294C22.7446 2.54696 21.8329 2.78161 20.8824 2.89555C21.8602 2.34486 22.6065 1.47948 22.9574 0.436426C22.0457 0.949138 21.0391 1.31129 19.9664 1.51339C19.1008 0.643952 17.867 0.105469 16.5211 0.105469C13.9097 0.105469 11.8074 2.10478 11.8074 4.55576C11.8074 4.90842 11.8391 5.24751 11.9167 5.57033C7.9954 5.38993 4.5256 3.61714 2.19466 0.916585C1.78772 1.58257 1.54902 2.34486 1.54902 3.16547C1.54902 4.70632 2.39022 6.07219 3.64413 6.86296C2.88632 6.8494 2.1429 6.64187 1.51307 6.31498C1.51307 6.32855 1.51307 6.34618 1.51307 6.36381C1.51307 8.52589 3.14803 10.3217 5.29203 10.7354C4.90809 10.8344 4.48965 10.8819 4.05538 10.8819C3.75341 10.8819 3.44856 10.8656 3.16241 10.806C3.77354 12.5679 5.50772 13.8632 7.56976 13.9053C5.965 15.0894 3.9274 15.8029 1.72157 15.8029C1.33476 15.8029 0.963767 15.7866 0.592773 15.7418C2.68213 17.0128 5.1583 17.7384 7.82859 17.7384C16.5081 17.7384 21.2534 10.9565 21.2534 5.07796C21.2534 4.88129 21.2462 4.6914 21.2361 4.50286C22.1723 3.87621 22.9588 3.09358 23.6001 2.19294Z" fill="white"/>
</svg>
